<svg version="1.1" id="Layer_1" xmlns="http://www.w3.org/2000/svg" xmlns:xlink="http://www.w3.org/1999/xlink" x="0px" y="0px"
	 width="100%" viewBox="0 0 300 257" enable-background="new 0 0 300 257" xml:space="preserve">
<path fill="#FEFEFE" opacity="1.000000" stroke="none" 
	d="
M1.000000,257.000000 
	C1.000000,171.712662 1.000000,86.425316 1.000000,1.068985 
	C100.900078,1.068985 200.800217,1.068985 301.000000,1.068985 
	C301.000000,86.020660 301.000000,171.041672 300.775574,256.633026 
	C300.270294,257.401703 300.086578,257.667236 300.000000,258.000000 
	C200.979111,258.000000 101.958206,258.000000 2.367240,257.775574 
	C1.598112,257.271027 1.332390,257.087311 1.000000,257.000000 
M221.976242,158.974014 
	C221.976242,158.974014 221.892212,158.941330 222.396393,158.746292 
	C222.552353,158.434174 222.708328,158.122040 222.888611,157.949219 
	C222.888611,157.949219 222.804825,157.835312 223.550583,157.878601 
	C229.272324,155.859497 231.293457,150.981873 233.017868,145.368210 
	C233.165649,145.100174 233.388290,144.930237 234.440262,144.930588 
	C235.121002,144.662521 235.801758,144.394440 236.482498,144.126373 
	C236.119492,143.671143 235.756485,143.215927 235.395935,142.266617 
	C235.271317,141.795822 235.146698,141.325043 235.150436,140.033463 
	C235.546967,138.995743 235.943497,137.958023 237.013382,137.251221 
	C237.682755,137.546753 238.352142,137.842300 239.070663,138.792999 
	C240.029709,139.530136 240.988739,140.267273 242.066986,141.397842 
	C242.066986,141.397842 242.079132,141.808746 242.229156,142.351379 
	C242.535110,142.549210 242.841064,142.747025 243.568680,143.100769 
	C243.836777,143.272400 244.002716,143.514160 244.258102,144.372208 
	C244.588608,144.547241 244.919098,144.722290 245.647171,145.001572 
	C245.909119,145.125183 246.091675,145.322327 246.091980,146.382324 
	C247.210526,149.878448 249.384354,151.991394 253.659851,152.014648 
	C253.905045,152.168518 254.080246,152.380264 254.144775,153.361252 
	C255.553207,155.362030 256.961639,157.362808 258.552185,159.622269 
	C261.703339,152.934204 261.972931,149.710602 254.499374,145.647324 
	C254.318207,145.108414 254.137054,144.569519 254.488983,143.613968 
	C253.626083,142.432510 252.763184,141.251053 251.965302,139.988297 
	C251.965302,139.988297 251.924301,140.083542 251.992615,139.313400 
	C251.303436,138.211273 250.614243,137.109146 249.519165,135.586044 
	C249.009338,135.024719 248.499512,134.463394 247.723145,133.307709 
	C247.134918,132.200623 246.546692,131.093521 246.023224,129.236053 
	C243.688004,124.414505 241.352783,119.592957 238.932465,114.117538 
	C238.245758,112.990181 237.559036,111.862831 236.764511,110.236916 
	C236.773239,109.897942 236.781967,109.558960 237.591309,109.066925 
	C240.390442,108.719025 243.452774,108.766502 243.997940,104.924294 
	C243.997940,104.924294 243.880356,104.912910 244.397308,104.784554 
	C244.586716,104.496887 244.776123,104.209229 245.175827,103.479080 
	C245.383026,103.200500 245.658844,103.039497 246.466553,102.855431 
	C246.761017,102.680328 246.947983,102.426147 247.254990,101.617935 
	C247.544632,101.430946 247.834274,101.243965 248.907639,101.041435 
	C249.878799,99.924446 250.849960,98.807465 252.025421,97.298126 
	C252.220245,97.056671 252.470810,96.911415 253.559265,96.953079 
	C254.570099,95.854721 255.580933,94.756363 256.664948,93.665306 
	C256.664948,93.665306 256.666595,93.591782 257.537842,93.837143 
	C261.972992,94.798294 262.317871,92.173058 262.012299,88.940140 
	C262.012299,88.940140 261.886780,88.888611 262.632111,88.969139 
	C265.272858,86.864845 267.937592,84.787842 270.470001,82.560379 
	C270.575684,82.467438 269.445892,80.969933 268.984558,80.051918 
	C268.984558,80.051918 268.888794,80.136612 268.876190,79.347237 
	C265.516632,75.554756 262.063293,76.002151 256.271423,81.062454 
	C255.518829,81.060822 254.766251,81.059189 253.449142,80.451065 
	C249.587479,80.616272 245.315857,77.894073 241.461334,82.335068 
	C240.662979,82.392235 239.864639,82.449402 238.802597,81.859352 
	C233.874344,81.627403 228.855576,80.940041 224.290146,84.430321 
	C224.290146,84.430321 223.978577,84.063530 223.582230,83.558929 
	C223.180908,83.595474 222.779572,83.632019 221.712097,83.948326 
	C221.236267,83.918350 220.760452,83.888374 220.715424,83.059410 
	C225.048065,76.586334 224.748611,74.806709 218.998581,72.998528 
	C218.998581,72.998528 219.013123,72.975861 218.963150,72.593796 
	C218.877945,72.337631 218.716278,72.145988 218.136948,71.534126 
	C218.097534,71.340508 218.058105,71.146881 218.051132,70.167625 
	C217.332397,67.820618 216.933411,65.302742 215.798157,63.178303 
	C214.812241,61.333321 212.993179,59.933544 211.542313,58.337017 
	C209.428696,61.004559 203.382843,59.327808 203.993561,65.013100 
	C203.993561,65.013100 204.085953,65.079758 203.340637,65.008972 
	C202.249161,66.034523 201.157684,67.060081 199.992935,68.021454 
	C199.992935,68.021454 200.083206,68.055870 199.581375,68.180656 
	C199.388489,68.455078 199.195602,68.729492 199.000000,69.000000 
	C199.000000,69.000000 199.003555,69.003387 198.287247,68.981239 
	C197.545135,69.681580 196.803024,70.381927 195.996902,71.005684 
	C195.996902,71.005684 196.073212,71.068077 195.336945,71.003036 
	C194.602158,71.722069 193.867386,72.441093 193.002518,73.013611 
	C193.002518,73.013611 193.153564,73.138031 192.356110,73.042953 
	C188.340378,73.660942 183.391006,77.876945 183.000000,81.000000 
	C183.000000,81.000000 183.007385,81.006378 182.247162,80.974762 
	C181.098251,81.721840 179.949341,82.468925 178.838440,83.191292 
	C180.652771,84.856445 181.851044,85.956192 182.466858,87.289337 
	C182.469955,87.860390 182.251160,88.787567 182.509689,88.948654 
	C185.961121,91.099098 189.479324,93.142380 193.002121,95.916008 
	C195.089508,98.047722 197.176910,100.179428 199.622589,102.677025 
	C199.116379,107.532692 201.336044,110.390663 207.153824,111.523636 
	C207.355118,111.766579 207.596375,111.959610 208.149017,112.508690 
	C208.361649,112.762085 208.616196,112.962128 209.179901,113.491745 
	C209.382416,113.734161 209.622971,113.929802 210.165604,114.482018 
	C210.379135,114.729858 210.635941,114.918961 210.985886,115.787727 
	C211.232559,116.567139 211.365356,117.407394 211.744080,118.116257 
	C214.560974,123.388908 219.694214,124.799492 224.596924,126.525330 
	C223.487625,128.229965 222.378326,129.934586 221.290421,132.127777 
	C221.224228,132.458725 221.069244,132.740891 220.153961,133.066406 
	C216.052170,136.161102 215.816956,136.840103 218.022659,139.544861 
	C217.937683,139.699997 217.852722,139.855118 217.372696,140.307098 
	C217.146439,140.577164 217.056778,140.886826 217.071732,141.651108 
	C217.071732,141.651108 216.852295,142.004837 216.423798,142.330276 
	C216.333176,142.669052 216.242554,143.007828 216.136673,143.707977 
	C216.136673,143.707977 215.925446,144.001602 215.463196,144.352249 
	C215.373886,144.719986 215.284576,145.087708 215.209427,145.769028 
	C215.209427,145.769028 215.002014,146.004639 214.495682,146.353729 
	C214.357437,146.934387 214.219177,147.515030 214.025360,148.000397 
	C214.025360,148.000397 214.110382,148.070694 213.361832,148.139648 
	C212.589371,150.459290 211.816910,152.778946 210.987808,155.733887 
	C210.607452,156.489807 210.227081,157.245728 209.416901,158.332260 
	C209.329575,158.674911 209.242249,159.017563 209.154083,159.706451 
	C209.154083,159.706451 208.957916,159.991745 208.272430,160.108643 
	C204.483597,167.956207 200.580704,175.752594 197.014603,183.700104 
	C196.397385,185.075653 197.206711,187.091324 197.357117,188.811295 
	C198.615753,187.762985 200.021820,186.841263 201.074112,185.615799 
	C201.645630,184.950241 201.615341,183.767929 201.939850,182.898590 
	C201.939850,182.898590 201.824936,182.887375 202.358353,182.735413 
	C202.517426,182.417755 202.676514,182.100113 202.848450,181.935181 
	C202.848450,181.935181 202.772995,181.801773 203.550323,181.860443 
	C206.554916,181.454697 207.380264,179.600616 206.939819,177.010361 
	C206.939819,177.010361 206.845673,176.876221 207.578979,176.895966 
	C208.394745,175.610825 209.210510,174.325684 210.000015,172.999680 
	C210.000015,172.999680 210.040863,173.026077 210.770859,173.016144 
	C216.158386,170.233780 219.913284,166.169159 220.998779,159.998779 
	C220.998779,159.998779 221.000626,159.990952 221.464340,159.774597 
	C221.621414,159.480911 221.778503,159.187225 221.976242,158.974014 
M118.529449,170.473038 
	C118.332718,170.600800 118.135986,170.728577 117.481018,170.391479 
	C116.383308,169.380844 115.285606,168.370224 113.289803,166.532745 
	C113.876694,169.680878 114.178764,171.301254 114.480873,172.921783 
	C115.739990,172.642502 116.822258,172.402451 118.184921,172.838333 
	C118.639038,172.914093 119.093147,172.989853 119.860420,173.110397 
	C120.076462,173.110291 120.278854,173.057678 120.102531,173.677017 
	C120.396683,174.118637 120.690826,174.560242 120.262894,174.899582 
	C119.361305,175.155838 118.459717,175.412079 117.558128,175.668335 
	C117.841064,176.175781 118.124008,176.683228 118.406944,177.190674 
	C119.569397,176.418823 120.731842,175.646957 122.054321,174.441559 
	C122.054321,174.441559 122.206184,174.005096 122.821411,174.009140 
	C126.823715,177.945023 131.551331,177.349686 136.908005,176.518204 
	C134.910187,174.671921 133.368469,173.247147 131.793243,171.830658 
	C131.793243,171.830658 131.803436,171.796906 132.451050,171.907257 
	C132.669830,171.897888 132.888611,171.888519 133.934464,171.898865 
	C135.823318,173.143356 137.712189,174.387833 139.601044,175.632324 
	C139.580154,176.370422 139.559265,177.108521 139.538376,177.846619 
	C142.430801,176.532333 145.323242,175.218048 148.490082,174.429901 
	C149.645966,174.945374 150.801865,175.460846 152.484360,176.182190 
	C152.894379,176.154968 153.304382,176.127747 153.714401,176.100540 
	C153.124420,175.747833 152.534439,175.395126 151.947708,174.961029 
	C151.947708,174.961029 152.027390,174.944138 152.026794,174.254913 
	C152.032043,173.794022 152.037277,173.333130 152.715790,172.608475 
	C153.814484,173.200348 154.865875,173.922989 156.026764,174.342941 
	C156.965897,174.682678 158.036896,174.657898 159.750198,175.144272 
	C161.185287,175.437408 162.620361,175.730530 164.682053,176.296387 
	C166.394852,174.992676 168.107666,173.688965 170.088226,172.181458 
	C170.995163,174.745117 171.212418,179.181976 176.400009,176.045883 
	C176.400009,176.045883 176.766357,176.115875 177.189636,176.647598 
	C178.173935,176.460373 179.158234,176.273148 180.900269,176.024734 
	C182.691360,176.566345 184.482452,177.107956 186.539734,177.730072 
	C187.304840,175.315048 188.184219,172.539261 189.063614,169.763474 
	C188.706955,169.598938 188.350296,169.434387 187.993637,169.269852 
	C187.284470,170.120987 186.575317,170.972107 186.695847,170.827454 
	C183.877029,170.403427 182.065292,170.130890 179.743683,169.344559 
	C177.992126,169.434769 176.241104,169.537155 174.488922,169.612595 
	C170.965042,169.764328 167.440521,169.901352 163.369934,169.874329 
	C162.012390,170.311142 160.654861,170.747955 158.583389,170.989441 
	C156.981934,169.683975 155.380478,168.378510 153.783508,167.076706 
	C152.507843,167.761093 151.377640,168.367416 149.943619,168.585907 
	C149.189301,169.033661 148.434967,169.481415 146.966965,169.787582 
	C142.528549,169.433517 137.961426,167.658051 133.737854,170.261520 
	C132.013458,170.772873 130.289078,171.284225 127.733788,171.845917 
	C125.533806,171.067871 123.333824,170.289810 120.554344,169.637497 
	C120.022743,170.105026 119.491142,170.572571 119.035484,171.031631 
	C119.035484,171.031631 119.041733,170.955475 118.529449,170.473038 
M84.788956,175.689178 
	C84.835022,174.046341 84.881088,172.403519 84.927155,170.760681 
	C84.492142,170.835052 84.057121,170.909409 83.150291,170.953461 
	C82.833435,170.944931 82.520264,170.974930 82.166298,170.252075 
	C80.824783,170.542984 79.483269,170.833893 77.406586,171.053421 
	C75.926323,170.416183 74.446060,169.778946 72.149094,168.790146 
	C73.588921,171.020966 74.911957,172.138275 74.932068,173.278549 
	C74.990189,176.571976 77.153839,175.911484 79.785690,176.166397 
	C80.531075,176.162720 81.276451,176.159042 82.397934,176.468292 
	C82.941216,176.263657 83.484497,176.059021 84.788956,175.689178 
M100.763908,170.232056 
	C99.845284,170.171158 98.926666,170.110245 97.264008,170.129578 
	C97.057228,171.845001 96.850441,173.560440 96.643669,175.275848 
	C98.121559,175.234634 99.599449,175.193405 101.657585,174.946640 
	C102.490921,174.946640 103.324257,174.946640 104.690056,174.946640 
	C103.233459,173.322815 102.145805,172.110275 100.763908,170.232056 
M63.129089,169.876740 
	C62.115963,170.573883 61.102840,171.271027 59.394608,172.092453 
	C56.351345,174.345184 59.653324,175.224213 60.569065,176.306717 
	C60.844147,176.631882 62.797245,175.537537 64.482170,175.131760 
	C64.638916,175.073196 64.795654,175.014618 65.458611,175.021942 
	C65.628128,175.007172 65.797653,174.992401 66.419434,175.015076 
	C66.419434,175.015076 66.872055,175.047867 66.975563,175.767197 
	C68.214806,176.025101 69.454041,176.282990 70.693283,176.540894 
	C70.730171,175.990005 70.767067,175.439117 70.803963,174.888214 
	C69.928436,174.953262 69.052917,175.018311 68.003807,175.096252 
	C68.039787,172.004684 67.998657,169.190598 63.129089,169.876740 
M81.650269,158.135040 
	C84.874443,158.372803 88.067307,158.928986 88.015221,153.873642 
	C87.875580,140.320969 88.050529,126.764557 87.832748,113.213936 
	C87.810921,111.855698 85.959572,110.526871 84.390282,108.913628 
	C80.544968,108.449844 79.052643,110.078758 79.098038,114.003860 
	C79.249359,127.087769 79.092850,140.175186 79.236191,153.259277 
	C79.252945,154.788452 80.403481,156.305237 81.650269,158.135040 
M160.396042,154.380569 
	C160.457504,154.553909 160.518967,154.727234 160.282959,155.443085 
	C161.008881,159.096970 164.003189,158.693161 166.169388,157.973267 
	C167.402481,157.563461 168.610336,155.186157 168.714096,153.620880 
	C169.038803,148.722778 168.833374,143.789536 168.833374,139.219666 
	C175.070221,138.751480 180.611893,138.786041 185.974014,137.822006 
	C193.114182,136.538284 196.822388,131.274994 196.815277,123.775177 
	C196.808273,116.380165 193.429291,111.133972 186.305634,110.097115 
	C179.136841,109.053688 171.743134,109.231323 164.470673,109.496315 
	C163.007706,109.549622 160.452454,112.377724 160.426437,113.959808 
	C160.207733,127.254745 160.461121,140.557434 160.396042,154.380569 
M33.321484,116.707115 
	C33.322006,124.539597 33.286968,132.372269 33.331112,140.204514 
	C33.403175,152.990326 38.185699,158.023895 50.968071,158.675583 
	C53.279049,158.793411 55.635822,158.617462 57.932926,158.299149 
	C68.287277,156.864319 72.596397,152.034698 72.691811,141.691696 
	C72.774818,132.693466 72.732346,123.693748 72.688927,114.694954 
	C72.681244,113.102257 72.396820,111.510895 72.209396,109.605934 
	C69.331642,109.852417 66.961670,110.055412 64.136841,110.297363 
	C64.136841,120.630501 64.153717,130.597626 64.131485,140.564667 
	C64.113846,148.476913 60.990074,151.392334 52.685459,151.325638 
	C44.873177,151.262894 41.955429,148.318466 41.931538,140.378387 
	C41.904453,131.379471 42.010536,122.378738 41.835228,113.383156 
	C41.808228,111.997673 40.888233,109.860321 39.839367,109.447525 
	C38.333008,108.854698 35.495289,108.859772 34.732307,109.814041 
	C33.580189,111.255005 33.727196,113.734680 33.321484,116.707115 
M119.759720,138.066208 
	C120.119072,149.541473 125.295464,156.567947 135.366058,157.999252 
	C140.399155,158.714569 145.653793,158.353760 150.746613,157.853073 
	C152.154327,157.714661 154.250870,155.437088 154.430389,153.947998 
	C154.755249,151.253250 152.593903,150.589966 150.001938,150.865448 
	C146.865479,151.198822 143.676407,151.366898 140.529999,151.209244 
	C133.677002,150.865875 129.903183,147.853317 128.988113,141.097931 
	C128.351288,136.396790 128.406525,131.462067 129.065155,126.759506 
	C129.954880,120.406990 133.688904,117.085419 140.068619,116.329536 
	C143.338562,115.942093 146.754135,116.714104 150.003845,116.254593 
	C151.653915,116.021286 153.082260,114.219856 154.610840,113.127335 
	C153.395660,111.854523 152.255478,109.583153 150.952057,109.485260 
	C145.857574,109.102608 140.540375,108.589638 135.618607,109.619377 
	C123.814659,112.088997 116.493515,125.449326 119.759720,138.066208 
M116.537788,111.882103 
	C113.759094,108.404999 111.093369,108.204933 107.936584,111.657310 
	C103.001305,117.054710 97.844109,122.253403 92.679337,127.435013 
	C89.991783,130.131348 89.634232,132.872131 92.005379,135.829269 
	C97.518402,142.704758 103.128532,149.502655 108.613739,156.400055 
	C110.818932,159.172958 113.254951,158.628860 115.634186,157.035385 
	C118.714058,154.972626 116.558098,153.036667 115.140930,151.263596 
	C109.864738,144.662399 104.539230,138.100616 99.100426,131.360703 
	C101.756325,128.832214 104.402443,126.550789 106.765800,124.006706 
	C110.221077,120.287193 113.473488,116.379227 116.537788,111.882103 
M52.541534,172.372040 
	C52.740185,172.900314 52.938831,173.428589 53.137482,173.956879 
	C53.373249,173.905991 53.609020,173.855118 53.844788,173.804245 
	C53.844788,172.606979 53.844788,171.409698 53.844788,170.212433 
	C53.610641,170.159637 53.376495,170.106842 53.142349,170.054047 
	C52.940903,170.575928 52.739452,171.097824 52.541534,172.372040 
M219.094086,128.727234 
	C219.039474,128.230942 218.984863,127.734665 218.930237,127.238388 
	C218.485657,127.352501 218.041061,127.466614 217.596481,127.580734 
	C217.897339,128.004517 218.198212,128.428299 219.094086,128.727234 
z"/>
<path fill="#E9EAEC" opacity="1.000000" stroke="none" 
	d="
M1.000000,257.500000 
	C1.332390,257.087311 1.598112,257.271027 1.898583,257.775574 
	C1.666667,258.000000 1.333333,258.000000 1.000000,257.500000 
z"/>
<path fill="#E9EAEC" opacity="1.000000" stroke="none" 
	d="
M300.500000,258.000000 
	C300.086578,257.667236 300.270294,257.401703 300.775574,257.101685 
	C301.000000,257.333344 301.000000,257.666656 300.500000,258.000000 
z"/>
<path fill="#181818" opacity="1.000000" stroke="none" 
	d="
M33.321777,116.240005 
	C33.727196,113.734680 33.580189,111.255005 34.732307,109.814041 
	C35.495289,108.859772 38.333008,108.854698 39.839367,109.447525 
	C40.888233,109.860321 41.808228,111.997673 41.835228,113.383156 
	C42.010536,122.378738 41.904453,131.379471 41.931538,140.378387 
	C41.955429,148.318466 44.873177,151.262894 52.685459,151.325638 
	C60.990074,151.392334 64.113846,148.476913 64.131485,140.564667 
	C64.153717,130.597626 64.136841,120.630501 64.136841,110.297363 
	C66.961670,110.055412 69.331642,109.852417 72.209396,109.605934 
	C72.396820,111.510895 72.681244,113.102257 72.688927,114.694954 
	C72.732346,123.693748 72.774818,132.693466 72.691811,141.691696 
	C72.596397,152.034698 68.287277,156.864319 57.932926,158.299149 
	C55.635822,158.617462 53.279049,158.793411 50.968071,158.675583 
	C38.185699,158.023895 33.403175,152.990326 33.331112,140.204514 
	C33.286968,132.372269 33.322006,124.539597 33.321777,116.240005 
z"/>
<path fill="#DC3943" opacity="1.000000" stroke="none" 
	d="
M223.978577,84.063530 
	C223.978577,84.063530 224.290146,84.430321 224.524689,84.865021 
	C225.782745,87.214020 226.806290,89.128326 227.881165,91.403595 
	C230.910950,97.562584 233.889389,103.360626 236.842178,109.165970 
	C236.816528,109.173271 236.790695,109.219986 236.790695,109.219986 
	C236.781967,109.558960 236.773239,109.897942 236.527527,110.672897 
	C230.246552,116.786850 230.234482,116.807755 223.191681,112.738708 
	C213.111053,106.914520 203.050201,101.056122 192.980896,95.212326 
	C189.479324,93.142380 185.961121,91.099098 182.509689,88.948654 
	C182.251160,88.787567 182.469955,87.860390 183.203064,87.259048 
	C196.054382,86.105309 208.169510,84.981850 220.284622,83.858391 
	C220.760452,83.888374 221.236267,83.918350 222.274521,83.978294 
	C223.217484,84.026688 223.598038,84.045113 223.978577,84.063530 
z"/>
<path fill="#191919" opacity="1.000000" stroke="none" 
	d="
M160.572418,153.857803 
	C160.461121,140.557434 160.207733,127.254745 160.426437,113.959808 
	C160.452454,112.377724 163.007706,109.549622 164.470673,109.496315 
	C171.743134,109.231323 179.136841,109.053688 186.305634,110.097115 
	C193.429291,111.133972 196.808273,116.380165 196.815277,123.775177 
	C196.822388,131.274994 193.114182,136.538284 185.974014,137.822006 
	C180.611893,138.786041 175.070221,138.751480 168.833374,139.219666 
	C168.833374,143.789536 169.038803,148.722778 168.714096,153.620880 
	C168.610336,155.186157 167.402481,157.563461 166.169388,157.973267 
	C164.003189,158.693161 161.008881,159.096970 160.650497,155.092804 
	C160.869492,154.447617 160.720963,154.152710 160.572418,153.857803 
M168.807022,118.647148 
	C168.807022,122.899246 168.807022,127.151352 168.807022,131.529465 
	C173.489990,131.529465 177.608795,131.799698 181.676117,131.457672 
	C186.247345,131.073227 188.666916,128.039337 187.893433,123.630333 
	C187.469849,121.215912 185.814590,117.697128 183.950638,117.112534 
	C179.077271,115.584068 173.715378,114.164642 168.807022,118.647148 
z"/>
<path fill="#151515" opacity="1.000000" stroke="none" 
	d="
M119.768417,137.681091 
	C116.493515,125.449326 123.814659,112.088997 135.618607,109.619377 
	C140.540375,108.589638 145.857574,109.102608 150.952057,109.485260 
	C152.255478,109.583153 153.395660,111.854523 154.610840,113.127335 
	C153.082260,114.219856 151.653915,116.021286 150.003845,116.254593 
	C146.754135,116.714104 143.338562,115.942093 140.068619,116.329536 
	C133.688904,117.085419 129.954880,120.406990 129.065155,126.759506 
	C128.406525,131.462067 128.351288,136.396790 128.988113,141.097931 
	C129.903183,147.853317 133.677002,150.865875 140.529999,151.209244 
	C143.676407,151.366898 146.865479,151.198822 150.001938,150.865448 
	C152.593903,150.589966 154.755249,151.253250 154.430389,153.947998 
	C154.250870,155.437088 152.154327,157.714661 150.746613,157.853073 
	C145.653793,158.353760 140.399155,158.714569 135.366058,157.999252 
	C125.295464,156.567947 120.119072,149.541473 119.768417,137.681091 
z"/>
<path fill="#417EAB" opacity="1.000000" stroke="none" 
	d="
M233.685822,144.858398 
	C233.388290,144.930237 233.165649,145.100174 232.655121,145.733292 
	C229.129868,150.010681 225.967346,153.922989 222.804810,157.835297 
	C222.804825,157.835312 222.888611,157.949219 222.626801,157.978577 
	C222.207413,158.319077 222.049820,158.630203 221.892212,158.941330 
	C221.892212,158.941330 221.976242,158.974014 221.712128,159.027618 
	C221.298889,159.384476 221.149765,159.687714 221.000626,159.990952 
	C221.000626,159.990952 220.998779,159.998779 220.692062,160.140564 
	C216.937180,164.530258 213.489029,168.778168 210.040863,173.026077 
	C210.040863,173.026077 210.000015,172.999680 209.714691,173.138931 
	C208.568130,174.477524 207.706894,175.676865 206.845673,176.876221 
	C206.845673,176.876221 206.939819,177.010361 206.605316,177.066422 
	C205.104858,178.682251 203.938934,180.242004 202.772995,181.801773 
	C202.772995,181.801773 202.848450,181.935181 202.592377,181.955597 
	C202.165833,182.279800 201.995377,182.583588 201.824921,182.887375 
	C201.824936,182.887375 201.939850,182.898590 201.546478,182.910843 
	C200.780228,182.236908 199.920273,181.351044 200.107452,180.894440 
	C202.977188,173.893921 205.983429,166.949341 208.957916,159.991745 
	C208.957916,159.991745 209.154083,159.706451 209.372955,159.369141 
	C209.676804,158.688431 209.761765,158.345047 209.846725,158.001648 
	C210.227081,157.245728 210.607452,156.489807 211.274841,155.183807 
	C212.411362,152.446060 213.260880,150.258377 214.110382,148.070694 
	C214.110382,148.070694 214.025360,148.000397 214.293915,147.864548 
	C214.708984,147.154007 214.855499,146.579330 215.002014,146.004639 
	C215.002014,146.004639 215.209427,145.769028 215.432617,145.433670 
	C215.745682,144.732742 215.835556,144.367172 215.925446,144.001602 
	C215.925446,144.001602 216.136673,143.707977 216.367828,143.370880 
	C216.683426,142.690811 216.767853,142.347824 216.852295,142.004837 
	C216.852295,142.004837 217.071732,141.651108 217.298004,141.302399 
	C217.605438,140.639206 217.686600,140.324722 217.767746,140.010254 
	C217.852722,139.855118 217.937683,139.699997 218.315994,139.072784 
	C219.348053,136.725220 220.086761,134.849747 220.825470,132.974274 
	C221.069244,132.740891 221.224228,132.458725 221.592026,131.685654 
	C223.243576,131.911499 224.748688,132.379974 225.913467,133.285995 
	C229.027710,135.708435 231.995880,138.318649 235.022079,140.854248 
	C235.146698,141.325043 235.271317,141.795822 235.150604,142.645813 
	C234.498779,143.636139 234.092300,144.247269 233.685822,144.858398 
z"/>
<path fill="#131313" opacity="1.000000" stroke="none" 
	d="
M116.675079,112.216843 
	C113.473488,116.379227 110.221077,120.287193 106.765800,124.006706 
	C104.402443,126.550789 101.756325,128.832214 99.100426,131.360703 
	C104.539230,138.100616 109.864738,144.662399 115.140930,151.263596 
	C116.558098,153.036667 118.714058,154.972626 115.634186,157.035385 
	C113.254951,158.628860 110.818932,159.172958 108.613739,156.400055 
	C103.128532,149.502655 97.518402,142.704758 92.005379,135.829269 
	C89.634232,132.872131 89.991783,130.131348 92.679337,127.435013 
	C97.844109,122.253403 103.001305,117.054710 107.936584,111.657310 
	C111.093369,108.204933 113.759094,108.404999 116.675079,112.216843 
z"/>
<path fill="#9CCB36" opacity="1.000000" stroke="none" 
	d="
M254.013657,81.057556 
	C254.766251,81.059189 255.518829,81.060822 257.084320,81.049767 
	C261.561066,80.736923 265.224945,80.436768 268.888794,80.136612 
	C268.888794,80.136612 268.984558,80.051918 268.949310,80.431961 
	C266.571625,83.504211 264.229218,86.196411 261.886780,88.888611 
	C261.886780,88.888611 262.012299,88.940140 261.624146,88.965668 
	C259.712891,90.524719 258.189728,92.058250 256.666595,93.591782 
	C256.666595,93.591782 256.664948,93.665306 256.326813,93.733330 
	C254.918167,94.821686 253.847656,95.842018 252.777145,96.862350 
	C252.470810,96.911415 252.220245,97.056671 251.613190,97.587448 
	C250.175278,98.936852 249.149612,99.996925 248.123932,101.056984 
	C247.834274,101.243965 247.544632,101.430946 246.896805,101.906319 
	C246.215149,102.364922 246.036713,102.632042 246.003281,102.996056 
	C245.658844,103.039497 245.383026,103.200500 244.811798,103.767456 
	C244.258636,104.341530 244.069489,104.627220 243.880356,104.912910 
	C243.880356,104.912910 243.997940,104.924294 243.624695,104.963211 
	C242.297775,105.578705 241.344116,106.155273 240.136414,106.885422 
	C237.442093,101.698288 234.870544,96.747505 232.283279,91.812370 
	C232.267578,91.828018 232.225357,91.838097 232.169739,91.575546 
	C231.831940,91.119209 231.549759,90.925423 231.277039,90.699783 
	C231.286499,90.667938 231.295074,90.602036 231.291031,90.243889 
	C230.612061,88.084839 229.937134,86.283928 229.066177,83.959923 
	C232.688278,83.433510 235.877289,82.970039 239.066284,82.506561 
	C239.864639,82.449402 240.662979,82.392235 242.192627,82.277435 
	C246.620514,81.832382 250.317078,81.444969 254.013657,81.057556 
z"/>
<path fill="#EDBC15" opacity="1.000000" stroke="none" 
	d="
M218.018692,70.953247 
	C218.058105,71.146881 218.097534,71.340508 218.250565,71.988167 
	C218.470688,72.753479 218.686996,72.931366 219.013123,72.975861 
	C219.013123,72.975861 218.998581,72.998528 219.030853,73.367180 
	C219.762833,75.532349 220.462540,77.328857 221.462997,79.897552 
	C217.742233,80.261505 214.700928,80.591301 211.653625,80.850899 
	C203.104050,81.579224 194.556320,82.345741 185.995026,82.898186 
	C185.005829,82.962029 182.129425,84.499107 183.007385,81.006378 
	C183.007385,81.006378 183.000000,81.000000 183.348907,80.980408 
	C186.849747,78.353226 190.001648,75.745628 193.153564,73.138031 
	C193.153564,73.138031 193.002518,73.013611 193.381104,73.047348 
	C194.530869,72.410088 195.302048,71.739082 196.073212,71.068077 
	C196.073212,71.068077 195.996902,71.005684 196.347244,71.023041 
	C197.466248,70.361397 198.234894,69.682396 199.003555,69.003387 
	C199.003555,69.003387 199.000000,69.000000 199.265259,68.958786 
	C199.714752,68.630341 199.898972,68.343102 200.083206,68.055862 
	C200.083206,68.055870 199.992935,68.021454 200.352295,68.011215 
	C201.836426,67.027237 202.961182,66.053497 204.085953,65.079758 
	C204.085953,65.079758 203.993561,65.013100 204.383179,65.008690 
	C207.065750,63.539719 209.358719,62.075157 211.924911,60.436085 
	C214.140533,64.259995 216.079620,67.606621 218.018692,70.953247 
z"/>
<path fill="#121212" opacity="1.000000" stroke="none" 
	d="
M84.957298,109.184402 
	C85.959572,110.526871 87.810921,111.855698 87.832748,113.213936 
	C88.050529,126.764557 87.875580,140.320969 88.015221,153.873642 
	C88.067307,158.928986 84.874443,158.372803 81.312759,157.524338 
	C80.944740,142.917816 81.029388,128.920105 80.799492,114.927567 
	C80.744804,111.599007 82.192520,110.100174 84.957298,109.184402 
z"/>
<path fill="#F2F3F4" opacity="1.000000" stroke="none" 
	d="
M192.991516,95.564163 
	C203.050201,101.056122 213.111053,106.914520 223.191681,112.738708 
	C230.234482,116.807755 230.246552,116.786850 236.581421,110.922180 
	C237.559036,111.862831 238.245758,112.990181 238.648087,114.561600 
	C234.145248,118.646561 229.926773,122.287460 225.523499,125.939629 
	C225.338684,125.950890 224.968384,125.953972 224.968384,125.953972 
	C219.694214,124.799492 214.560974,123.388908 211.744080,118.116257 
	C211.365356,117.407394 211.232559,116.567139 211.015839,115.370132 
	C211.045792,114.952545 211.152802,114.852730 211.441254,115.016319 
	C215.110550,118.039780 218.491379,120.899651 222.192017,124.030052 
	C223.632950,122.521881 224.891235,121.204872 226.584534,119.432571 
	C220.359802,116.048836 214.902390,113.022743 209.357590,110.166283 
	C208.841461,109.900398 207.771606,110.709328 206.948883,111.052521 
	C206.938934,111.085838 206.893127,111.138184 206.893127,111.138184 
	C201.336044,110.390663 199.116379,107.532692 199.622589,102.677025 
	C197.176910,100.179428 195.089508,98.047722 192.991516,95.564163 
z"/>
<path fill="#3A4F52" opacity="1.000000" stroke="none" 
	d="
M225.708313,125.928375 
	C229.926773,122.287460 234.145248,118.646561 238.690643,114.888535 
	C241.352783,119.592957 243.688004,124.414505 245.692596,129.758179 
	C243.248489,132.899475 241.134995,135.518646 239.021515,138.137817 
	C238.352142,137.842300 237.682755,137.546753 236.560471,136.816086 
	C232.641144,132.896759 229.174728,129.412567 225.708313,125.928375 
z"/>
<path fill="#F8F4D6" opacity="1.000000" stroke="none" 
	d="
M182.627274,80.990570 
	C182.129425,84.499107 185.005829,82.962029 185.995026,82.898186 
	C194.556320,82.345741 203.104050,81.579224 211.653625,80.850899 
	C214.700928,80.591301 217.742233,80.261505 221.462997,79.897552 
	C220.462540,77.328857 219.762833,75.532349 219.041931,73.361862 
	C224.748611,74.806709 225.048065,76.586334 220.500031,83.458900 
	C208.169510,84.981850 196.054382,86.105309 183.494293,87.142349 
	C181.851044,85.956192 180.652771,84.856445 178.838440,83.191292 
	C179.949341,82.468925 181.098251,81.721840 182.627274,80.990570 
z"/>
<path fill="#2E2E2E" opacity="1.000000" stroke="none" 
	d="
M84.673790,109.049011 
	C82.192520,110.100174 80.744804,111.599007 80.799492,114.927567 
	C81.029388,128.920105 80.944740,142.917816 81.001816,157.370697 
	C80.403481,156.305237 79.252945,154.788452 79.236191,153.259277 
	C79.092850,140.175186 79.249359,127.087769 79.098038,114.003860 
	C79.052643,110.078758 80.544968,108.449844 84.673790,109.049011 
z"/>
<path fill="#D0D0D0" opacity="1.000000" stroke="none" 
	d="
M176.027802,176.022110 
	C171.212418,179.181976 170.995163,174.745117 170.088226,172.181458 
	C168.107666,173.688965 166.394852,174.992676 164.283981,175.852600 
	C163.023468,174.987701 162.161011,174.566574 161.508453,174.131958 
	C162.101654,173.965347 162.484970,173.812210 163.278198,173.480469 
	C163.764145,172.216049 163.840210,171.130249 163.916275,170.044434 
	C167.440521,169.901352 170.965042,169.764328 174.488922,169.612595 
	C176.241104,169.537155 177.992126,169.434769 179.913544,169.924133 
	C179.714233,171.002762 179.345078,171.501816 178.895447,171.841278 
	C178.577438,171.767426 178.339890,171.853149 178.099854,172.235107 
	C178.114594,172.728119 178.131836,172.924866 178.139938,173.331757 
	C178.415039,173.689026 178.699295,173.836182 179.262497,174.137054 
	C179.741806,174.889160 179.942169,175.487534 180.142532,176.085922 
	C179.158234,176.273148 178.173935,176.460373 177.036026,176.069702 
	C176.823654,174.935486 176.764893,174.379150 176.706146,173.822815 
	C176.525726,173.823593 176.345306,173.824371 176.164902,173.825134 
	C176.119202,174.557465 176.073502,175.289780 176.027802,176.022110 
z"/>
<path fill="#4CAC80" opacity="1.000000" stroke="none" 
	d="
M244.066528,143.826035 
	C244.002716,143.514160 243.836777,143.272400 243.263306,142.765671 
	C242.665009,142.223297 242.372070,142.016022 242.079132,141.808746 
	C242.079132,141.808746 242.066986,141.397842 242.196106,140.927643 
	C244.213364,138.272324 246.101517,136.087204 247.989685,133.902069 
	C248.499512,134.463394 249.009338,135.024719 249.747910,136.131226 
	C250.625870,137.812119 251.275085,138.947830 251.924316,140.083542 
	C251.924301,140.083542 251.965302,139.988297 251.957794,140.358673 
	C252.339157,141.753677 252.728027,142.778336 253.082062,144.188721 
	C252.374237,146.106537 251.701263,147.638611 250.714417,149.042313 
	C248.998627,147.806961 247.596725,146.699982 246.194809,145.593002 
	C246.091675,145.322327 245.909119,145.125183 245.324188,144.698807 
	C244.689651,144.206039 244.378082,144.016037 244.066528,143.826035 
z"/>
<path fill="#E2F4FA" opacity="1.000000" stroke="none" 
	d="
M208.615173,160.050201 
	C205.983429,166.949341 202.977188,173.893921 200.107452,180.894440 
	C199.920273,181.351044 200.780228,182.236908 201.504791,182.870895 
	C201.615341,183.767929 201.645630,184.950241 201.074112,185.615799 
	C200.021820,186.841263 198.615753,187.762985 197.357117,188.811310 
	C197.206711,187.091324 196.397385,185.075653 197.014603,183.700104 
	C200.580704,175.752594 204.483597,167.956207 208.615173,160.050201 
z"/>
<path fill="#E6F2F5" opacity="1.000000" stroke="none" 
	d="
M225.523499,125.939636 
	C229.174728,129.412567 232.641144,132.896759 236.223785,136.650635 
	C235.943497,137.958023 235.546967,138.995743 235.086258,140.443848 
	C231.995880,138.318649 229.027710,135.708435 225.913467,133.285995 
	C224.748688,132.379974 223.243576,131.911499 221.581329,131.441376 
	C222.378326,129.934586 223.487625,128.229965 224.782654,126.239655 
	C224.968384,125.953972 225.338684,125.950890 225.523499,125.939636 
z"/>
<path fill="#D0D0D0" opacity="1.000000" stroke="none" 
	d="
M148.215668,173.903778 
	C145.323242,175.218048 142.430801,176.532333 139.538376,177.846619 
	C139.559265,177.108521 139.580154,176.370422 139.601044,175.632324 
	C137.712189,174.387833 135.823318,173.143356 133.485596,171.713074 
	C133.036743,171.527298 132.967453,171.173004 133.181366,171.087357 
	C133.395279,171.001709 133.855331,170.974640 133.855331,170.974640 
	C137.961426,167.658051 142.528549,169.433517 147.381775,170.275726 
	C147.936279,171.810516 148.075974,172.857147 148.215668,173.903778 
M143.076752,173.395020 
	C142.999191,172.640549 142.921631,171.886078 142.844070,171.131607 
	C142.369141,171.442932 141.894211,171.754257 141.419281,172.065598 
	C141.975113,172.778763 142.530945,173.491943 143.076752,173.395020 
z"/>
<path fill="#F8F8F8" opacity="1.000000" stroke="none" 
	d="
M121.133850,169.511749 
	C123.333824,170.289810 125.533806,171.067871 128.395981,171.796524 
	C129.981033,171.772202 130.903885,171.797272 131.826736,171.822357 
	C133.368469,173.247147 134.910187,174.671921 136.908005,176.518204 
	C131.551331,177.349686 126.823715,177.945023 122.354828,173.668945 
	C121.414688,173.203369 120.941147,173.077988 120.467606,172.952606 
	C120.278854,173.057678 120.076462,173.110291 119.772125,172.708862 
	C119.469795,171.856720 119.255760,171.406097 119.041733,170.955475 
	C119.041733,170.955475 119.035484,171.031631 119.350815,171.042267 
	C120.155380,170.539200 120.644615,170.025482 121.133850,169.511749 
z"/>
<path fill="#E9EAEC" opacity="1.000000" stroke="none" 
	d="
M178.975922,172.000870 
	C179.345078,171.501816 179.714233,171.002762 180.168488,170.181030 
	C182.065292,170.130890 183.877029,170.403427 186.695847,170.827454 
	C186.575317,170.972107 187.284470,170.120987 187.993637,169.269852 
	C188.350296,169.434387 188.706955,169.598938 189.063614,169.763474 
	C188.184219,172.539261 187.304840,175.315048 186.539734,177.730072 
	C184.482452,177.107956 182.691360,176.566345 180.521393,176.055328 
	C179.942169,175.487534 179.741806,174.889160 179.183975,173.939713 
	C178.672363,173.328979 178.446564,173.173309 178.149094,173.121628 
	C178.131836,172.924866 178.114594,172.728119 178.317139,172.260330 
	C178.536942,171.989288 178.975906,172.000870 178.975922,172.000870 
M183.385117,174.463776 
	C183.385117,174.463776 183.498367,174.390991 183.385117,174.463776 
z"/>
<path fill="#F8F4D6" opacity="1.000000" stroke="none" 
	d="
M238.934448,82.182953 
	C235.877289,82.970039 232.688278,83.433510 229.066177,83.959923 
	C229.937134,86.283928 230.612061,88.084839 230.866791,90.361633 
	C229.574341,90.905891 228.702072,90.974266 227.829819,91.042633 
	C226.806290,89.128326 225.782745,87.214020 224.736084,84.979973 
	C228.855576,80.940041 233.874344,81.627403 238.934448,82.182953 
z"/>
<path fill="#F8F4D6" opacity="1.000000" stroke="none" 
	d="
M218.034912,70.560440 
	C216.079620,67.606621 214.140533,64.259995 211.924911,60.436085 
	C209.358719,62.075157 207.065750,63.539719 204.424118,65.049957 
	C203.382843,59.327808 209.428696,61.004559 211.542313,58.337017 
	C212.993179,59.933544 214.812241,61.333321 215.798157,63.178303 
	C216.933411,65.302742 217.332397,67.820618 218.034912,70.560440 
z"/>
<path fill="#F8F4D6" opacity="1.000000" stroke="none" 
	d="
M232.298981,91.796722 
	C234.870544,96.747505 237.442093,101.698288 240.136414,106.885422 
	C241.344116,106.155273 242.297775,105.578705 243.571503,104.937515 
	C243.452774,108.766502 240.390442,108.719025 237.191010,109.143456 
	C236.790695,109.219986 236.816528,109.173271 236.886017,108.753311 
	C235.828461,104.964882 234.607773,101.623878 233.609024,98.217789 
	C232.996521,96.128990 232.724121,93.940460 232.298981,91.796722 
z"/>
<path fill="#E3F7F1" opacity="1.000000" stroke="none" 
	d="
M247.856415,133.604889 
	C246.101517,136.087204 244.213364,138.272324 242.136490,140.730927 
	C240.988739,140.267273 240.029709,139.530136 239.046082,138.465408 
	C241.134995,135.518646 243.248489,132.899475 245.660217,130.133362 
	C246.546692,131.093521 247.134918,132.200623 247.856415,133.604889 
z"/>
<path fill="#E3F7F1" opacity="1.000000" stroke="none" 
	d="
M254.939133,146.019608 
	C261.972931,149.710602 261.703339,152.934204 258.552185,159.622269 
	C256.961639,157.362808 255.553207,155.362030 254.492523,153.136963 
	C255.755478,153.232498 256.670685,153.552353 258.081482,154.045410 
	C256.845642,150.888947 255.892380,148.454269 254.939133,146.019608 
z"/>
<path fill="#F8F4D6" opacity="1.000000" stroke="none" 
	d="
M268.882507,79.741928 
	C265.224945,80.436768 261.561066,80.736923 257.450928,80.961151 
	C262.063293,76.002151 265.516632,75.554756 268.882507,79.741928 
z"/>
<path fill="#D0D0D0" opacity="1.000000" stroke="none" 
	d="
M159.049408,174.794800 
	C158.036896,174.657898 156.965897,174.682678 156.026764,174.342941 
	C154.865875,173.922989 153.814484,173.200348 152.372620,172.419998 
	C152.015732,171.801788 152.002029,171.372040 151.929291,170.705414 
	C151.329315,169.970261 150.788376,169.472015 150.247452,168.973755 
	C151.377640,168.367416 152.507843,167.761093 153.783508,167.076706 
	C155.380478,168.378510 156.981934,169.683975 158.901993,171.449203 
	C159.163528,172.870911 159.106461,173.832855 159.049408,174.794800 
z"/>
<path fill="#E2F4FA" opacity="1.000000" stroke="none" 
	d="
M210.405853,173.021118 
	C213.489029,168.778168 216.937180,164.530258 220.688538,160.142410 
	C219.913284,166.169159 216.158386,170.233780 210.405853,173.021118 
z"/>
<path fill="#E2F4FA" opacity="1.000000" stroke="none" 
	d="
M223.177704,157.856949 
	C225.967346,153.922989 229.129868,150.010681 232.593994,145.939499 
	C231.293457,150.981873 229.272324,155.859497 223.177704,157.856949 
z"/>
<path fill="#65AD8E" opacity="1.000000" stroke="none" 
	d="
M254.719254,145.833466 
	C255.892380,148.454269 256.845642,150.888947 258.081482,154.045410 
	C256.670685,153.552353 255.755478,153.232498 254.512878,152.781281 
	C254.080246,152.380264 253.905045,152.168518 253.325256,151.676910 
	C252.336533,150.616348 251.682404,149.893509 251.028290,149.170685 
	C251.701263,147.638611 252.374237,146.106537 253.290039,144.251770 
	C253.532852,143.929077 253.955887,144.030609 253.955887,144.030609 
	C254.137054,144.569519 254.318207,145.108414 254.719254,145.833466 
z"/>
<path fill="#F8F4D6" opacity="1.000000" stroke="none" 
	d="
M192.754837,73.090492 
	C190.001648,75.745628 186.849747,78.353226 183.351852,80.984276 
	C183.391006,77.876945 188.340378,73.660942 192.754837,73.090492 
z"/>
<path fill="#E9EAEC" opacity="1.000000" stroke="none" 
	d="
M63.981621,175.093506 
	C62.797245,175.537537 60.844147,176.631882 60.569065,176.306717 
	C59.653324,175.224213 56.351345,174.345184 60.050594,171.975311 
	C61.537540,171.880020 62.368504,171.901886 63.176670,172.261414 
	C63.429790,173.430573 63.705704,174.262039 63.981621,175.093506 
z"/>
<path fill="#F8F4D6" opacity="1.000000" stroke="none" 
	d="
M262.259460,88.928879 
	C264.229218,86.196411 266.571625,83.504211 268.902863,80.469391 
	C269.445892,80.969933 270.575684,82.467438 270.470001,82.560379 
	C267.937592,84.787842 265.272858,86.864845 262.259460,88.928879 
z"/>
<path fill="#B1B1B1" opacity="1.000000" stroke="none" 
	d="
M79.062004,175.942764 
	C77.153839,175.911484 74.990189,176.571976 74.932068,173.278549 
	C74.911957,172.138275 73.588921,171.020966 72.149094,168.790146 
	C74.446060,169.778946 75.926323,170.416183 77.736694,171.454987 
	C78.398544,173.218628 78.730278,174.580704 79.062004,175.942764 
z"/>
<path fill="#383838" opacity="1.000000" stroke="none" 
	d="
M150.095535,168.779831 
	C150.788376,169.472015 151.329315,169.970261 151.589783,170.803436 
	C149.537735,172.786362 148.914383,174.217743 152.027390,174.944138 
	C152.027390,174.944138 151.947708,174.961029 151.944641,175.235260 
	C151.941559,175.509491 151.957748,175.976303 151.957748,175.976303 
	C150.801865,175.460846 149.645966,174.945374 148.352875,174.166840 
	C148.075974,172.857147 147.936279,171.810516 147.738617,170.346527 
	C148.434967,169.481415 149.189301,169.033661 150.095535,168.779831 
z"/>
<path fill="#F8F4D6" opacity="1.000000" stroke="none" 
	d="
M253.731400,80.754311 
	C250.317078,81.444969 246.620514,81.832382 242.474030,82.146530 
	C245.315857,77.894073 249.587479,80.616272 253.731400,80.754311 
z"/>
<path fill="#B1B1B1" opacity="1.000000" stroke="none" 
	d="
M65.967171,174.977631 
	C65.797653,174.992401 65.628128,175.007172 65.252380,174.618866 
	C64.707558,173.132217 64.368965,172.048645 63.981953,170.749237 
	C63.933533,170.533386 63.886749,170.093445 63.886749,170.093445 
	C67.998657,169.190598 68.039787,172.004684 68.003807,175.096252 
	C69.052917,175.018311 69.928436,174.953262 70.803963,174.888214 
	C70.767067,175.439117 70.730171,175.990005 70.693283,176.540894 
	C69.454041,176.282990 68.214806,176.025101 66.913834,175.188446 
	C66.557129,174.732361 66.262154,174.854996 65.967171,174.977631 
z"/>
<path fill="#2E2E2E" opacity="1.000000" stroke="none" 
	d="
M159.399811,174.969543 
	C159.106461,173.832855 159.163528,172.870911 159.258972,171.546875 
	C160.654861,170.747955 162.012390,170.311142 163.643097,169.959381 
	C163.840210,171.130249 163.764145,172.216049 163.257019,173.046448 
	C162.559784,172.207413 162.293594,171.623764 162.027405,171.040131 
	C161.784454,172.075241 161.541519,173.110336 161.298569,174.145447 
	C162.161011,174.566574 163.023468,174.987701 163.970673,175.716248 
	C162.620361,175.730530 161.185287,175.437408 159.399811,174.969543 
z"/>
<path fill="#4E4E4E" opacity="1.000000" stroke="none" 
	d="
M117.904533,172.162384 
	C116.822258,172.402451 115.739990,172.642502 114.480873,172.921783 
	C114.178764,171.301254 113.876694,169.680878 113.289803,166.532745 
	C115.285606,168.370224 116.383308,169.380844 117.748230,170.951691 
	C117.978477,171.728714 117.941505,171.945541 117.904533,172.162384 
z"/>
<path fill="#F8F4D6" opacity="1.000000" stroke="none" 
	d="
M257.102234,93.714462 
	C258.189728,92.058250 259.712891,90.524719 261.563782,88.931435 
	C262.317871,92.173058 261.972992,94.798294 257.102234,93.714462 
z"/>
<path fill="#E3F7F1" opacity="1.000000" stroke="none" 
	d="
M250.714417,149.042313 
	C251.682404,149.893509 252.336533,150.616348 253.130783,151.599319 
	C249.384354,151.991394 247.210526,149.878448 246.143402,145.987671 
	C247.596725,146.699982 248.998627,147.806961 250.714417,149.042313 
z"/>
<path fill="#E6F2F5" opacity="1.000000" stroke="none" 
	d="
M220.489716,133.020340 
	C220.086761,134.849747 219.348053,136.725220 218.350677,138.809723 
	C215.816956,136.840103 216.052170,136.161102 220.489716,133.020340 
z"/>
<path fill="#F2F3F4" opacity="1.000000" stroke="none" 
	d="
M82.210785,171.043457 
	C82.520264,170.974930 82.833435,170.944931 83.463211,171.355377 
	C83.765457,172.808670 83.754784,173.860031 83.453491,174.879333 
	C82.776733,174.897064 82.390594,174.946854 81.614105,174.929626 
	C80.724548,174.164291 80.225342,173.465973 79.726135,172.767639 
	C80.554344,172.192917 81.382561,171.618179 82.210785,171.043457 
z"/>
<path fill="#383838" opacity="1.000000" stroke="none" 
	d="
M82.188538,170.647766 
	C81.382561,171.618179 80.554344,172.192917 79.726135,172.767639 
	C80.225342,173.465973 80.724548,174.164291 81.670204,175.218536 
	C82.085045,175.768097 82.053444,175.961731 82.021835,176.155365 
	C81.276451,176.159042 80.531075,176.162720 79.423843,176.054581 
	C78.730278,174.580704 78.398544,173.218628 78.104279,171.490692 
	C79.483269,170.833893 80.824783,170.542984 82.188538,170.647766 
z"/>
<path fill="#383838" opacity="1.000000" stroke="none" 
	d="
M101.077339,175.152191 
	C99.599449,175.193405 98.121559,175.234634 96.643661,175.275848 
	C96.850441,173.560440 97.057228,171.845001 97.656181,170.389160 
	C98.055771,170.848862 98.063187,171.048965 98.056427,171.529388 
	C98.247337,172.814789 98.452415,173.819885 98.657486,174.824997 
	C99.163086,174.558624 99.668686,174.292252 100.384460,174.158493 
	C100.825058,174.539154 100.985962,174.826187 101.077339,175.152191 
z"/>
<path fill="#4E4E4E" opacity="1.000000" stroke="none" 
	d="
M101.367462,175.049408 
	C100.985962,174.826187 100.825058,174.539154 100.366577,173.812775 
	C100.154045,172.873352 100.169571,172.412277 100.384209,171.827469 
	C100.783844,171.459976 100.942116,171.191299 101.058144,170.897736 
	C102.145805,172.110275 103.233459,173.322815 104.690056,174.946640 
	C103.324257,174.946640 102.490921,174.946640 101.367462,175.049408 
z"/>
<path fill="#4E4E4E" opacity="1.000000" stroke="none" 
	d="
M131.809998,171.826508 
	C130.903885,171.797272 129.981033,171.772202 128.811432,171.771362 
	C130.289078,171.284225 132.013458,170.772873 133.796600,170.618073 
	C133.855331,170.974640 133.395279,171.001709 132.937637,171.081970 
	C132.117874,171.228165 131.892349,171.439728 131.803436,171.796906 
	C131.803436,171.796906 131.793243,171.830658 131.809998,171.826508 
z"/>
<path fill="#F2F3F4" opacity="1.000000" stroke="none" 
	d="
M213.736115,148.105164 
	C213.260880,150.258377 212.411362,152.446060 211.303162,154.866165 
	C211.816910,152.778946 212.589371,150.459290 213.736115,148.105164 
z"/>
<path fill="#E2F4FA" opacity="1.000000" stroke="none" 
	d="
M203.161652,181.831116 
	C203.938934,180.242004 205.104858,178.682251 206.571915,176.991699 
	C207.380264,179.600616 206.554916,181.454697 203.161652,181.831116 
z"/>
<path fill="#B1B1B1" opacity="1.000000" stroke="none" 
	d="
M121.894295,174.875092 
	C120.731842,175.646957 119.569397,176.418823 118.406944,177.190674 
	C118.124008,176.683228 117.841064,176.175781 117.558128,175.668335 
	C118.459717,175.412079 119.361305,175.155838 120.850143,174.911011 
	C121.437401,174.922455 121.894295,174.875092 121.894295,174.875092 
z"/>
<path fill="#E3F7F1" opacity="1.000000" stroke="none" 
	d="
M254.222443,143.822296 
	C253.955887,144.030609 253.532852,143.929077 253.324875,143.866028 
	C252.728027,142.778336 252.339157,141.753677 251.925278,140.399323 
	C252.763184,141.251053 253.626083,142.432510 254.222443,143.822296 
z"/>
<path fill="#F8F4D6" opacity="1.000000" stroke="none" 
	d="
M248.515778,101.049210 
	C249.149612,99.996925 250.175278,98.936852 251.511047,97.783630 
	C250.849960,98.807465 249.878799,99.924446 248.515778,101.049210 
z"/>
<path fill="#F8F8F8" opacity="1.000000" stroke="none" 
	d="
M152.027100,174.599518 
	C148.914383,174.217743 149.537735,172.786362 151.648819,171.040314 
	C152.002029,171.372040 152.015732,171.801788 152.035980,172.551880 
	C152.037277,173.333130 152.032043,173.794022 152.027100,174.599518 
z"/>
<path fill="#E2F4FA" opacity="1.000000" stroke="none" 
	d="
M207.212311,176.886078 
	C207.706894,175.676865 208.568130,174.477524 209.727814,173.159363 
	C209.210510,174.325684 208.394745,175.610825 207.212311,176.886078 
z"/>
<path fill="#F8F4D6" opacity="1.000000" stroke="none" 
	d="
M253.168213,96.907715 
	C253.847656,95.842018 254.918167,94.821686 256.290222,93.729683 
	C255.580933,94.756363 254.570099,95.854721 253.168213,96.907715 
z"/>
<path fill="#F8F4D6" opacity="1.000000" stroke="none" 
	d="
M203.713287,65.044365 
	C202.961182,66.053497 201.836426,67.027237 200.388931,68.043312 
	C201.157684,67.060081 202.249161,66.034523 203.713287,65.044365 
z"/>
<path fill="#121212" opacity="1.000000" stroke="none" 
	d="
M83.744102,174.911392 
	C83.754784,173.860031 83.765457,172.808670 83.699127,171.370544 
	C84.057121,170.909409 84.492142,170.835052 84.927155,170.760681 
	C84.881088,172.403519 84.835022,174.046341 84.407135,175.515076 
	C83.931572,175.197769 83.837837,175.054581 83.744102,174.911392 
z"/>
<path fill="#232323" opacity="1.000000" stroke="none" 
	d="
M63.507919,169.985092 
	C63.886749,170.093445 63.933533,170.533386 63.889091,170.946625 
	C63.699627,171.627960 63.484562,171.815918 63.199463,171.923737 
	C62.368504,171.901886 61.537540,171.880020 60.398148,171.913177 
	C61.102840,171.271027 62.115963,170.573883 63.507919,169.985092 
z"/>
<path fill="#121212" opacity="1.000000" stroke="none" 
	d="
M52.539772,171.995880 
	C52.739452,171.097824 52.940903,170.575928 53.142349,170.054047 
	C53.376495,170.106842 53.610641,170.159637 53.844788,170.212433 
	C53.844788,171.409698 53.844788,172.606979 53.844788,173.804245 
	C53.609020,173.855118 53.373249,173.905991 53.137482,173.956879 
	C52.938831,173.428589 52.740185,172.900314 52.539772,171.995880 
z"/>
<path fill="#4E4E4E" opacity="1.000000" stroke="none" 
	d="
M63.176670,172.261414 
	C63.484562,171.815918 63.699627,171.627960 63.937511,171.162476 
	C64.368965,172.048645 64.707558,173.132217 64.999275,174.585907 
	C64.795654,175.014618 64.638916,175.073196 64.231895,175.112640 
	C63.705704,174.262039 63.429790,173.430573 63.176670,172.261414 
z"/>
<path fill="#383838" opacity="1.000000" stroke="none" 
	d="
M120.844101,169.574615 
	C120.644615,170.025482 120.155380,170.539200 119.312851,171.046509 
	C119.491142,170.572571 120.022743,170.105026 120.844101,169.574615 
z"/>
<path fill="#F2F3F4" opacity="1.000000" stroke="none" 
	d="
M218.796585,128.789658 
	C218.198212,128.428299 217.897339,128.004517 217.596481,127.580734 
	C218.041061,127.466614 218.485657,127.352501 218.930237,127.238388 
	C218.984863,127.734665 219.039474,128.230942 218.796585,128.789658 
z"/>
<path fill="#E3F7F1" opacity="1.000000" stroke="none" 
	d="
M251.958466,139.698471 
	C251.275085,138.947830 250.625870,137.812119 249.950851,136.341736 
	C250.614243,137.109146 251.303436,138.211273 251.958466,139.698471 
z"/>
<path fill="#E2F4FA" opacity="1.000000" stroke="none" 
	d="
M234.063049,144.894501 
	C234.092300,144.247269 234.498779,143.636139 235.149384,142.892853 
	C235.756485,143.215927 236.119492,143.671143 236.482498,144.126373 
	C235.801758,144.394440 235.121002,144.662521 234.063049,144.894501 
z"/>
<path fill="#F8F4D6" opacity="1.000000" stroke="none" 
	d="
M195.705078,71.035553 
	C195.302048,71.739082 194.530869,72.410088 193.446152,73.120605 
	C193.867386,72.441093 194.602158,71.722069 195.705078,71.035553 
z"/>
<path fill="#F8F4D6" opacity="1.000000" stroke="none" 
	d="
M198.645401,68.992310 
	C198.234894,69.682396 197.466248,70.361397 196.379242,71.061340 
	C196.803024,70.381927 197.545135,69.681580 198.645401,68.992310 
z"/>
<path fill="#B1B1B1" opacity="1.000000" stroke="none" 
	d="
M83.453491,174.879333 
	C83.837837,175.054581 83.931572,175.197769 84.026543,175.597672 
	C83.484497,176.059021 82.941216,176.263657 82.209885,176.311829 
	C82.053444,175.961731 82.085045,175.768097 82.060547,175.285553 
	C82.390594,174.946854 82.776733,174.897064 83.453491,174.879333 
z"/>
<path fill="#232323" opacity="1.000000" stroke="none" 
	d="
M100.911026,170.564896 
	C100.942116,171.191299 100.783844,171.459976 100.215302,171.563126 
	C99.255058,171.364685 98.662827,171.306885 98.070602,171.249084 
	C98.063187,171.048965 98.055771,170.848862 98.028198,170.349045 
	C98.926666,170.110245 99.845284,170.171158 100.911026,170.564896 
z"/>
<path fill="#D0D0D0" opacity="1.000000" stroke="none" 
	d="
M152.221054,176.079254 
	C151.957748,175.976303 151.941559,175.509491 151.943008,175.275955 
	C152.534439,175.395126 153.124420,175.747833 153.714401,176.100525 
	C153.304382,176.127747 152.894379,176.154968 152.221054,176.079254 
z"/>
<path fill="#E9EAEC" opacity="1.000000" stroke="none" 
	d="
M176.213898,176.033997 
	C176.073502,175.289780 176.119202,174.557465 176.164902,173.825134 
	C176.345306,173.824371 176.525726,173.823593 176.706146,173.822815 
	C176.764893,174.379150 176.823654,174.935486 176.824387,175.803848 
	C176.766357,176.115875 176.400009,176.045883 176.213898,176.033997 
z"/>
<path fill="#232323" opacity="1.000000" stroke="none" 
	d="
M118.044724,172.500366 
	C117.941505,171.945541 117.978477,171.728714 117.977356,171.184113 
	C118.135986,170.728577 118.332718,170.600800 118.785591,170.714264 
	C119.255760,171.406097 119.469795,171.856720 119.615540,172.686493 
	C119.093147,172.989853 118.639038,172.914093 118.044724,172.500366 
z"/>
<path fill="#232323" opacity="1.000000" stroke="none" 
	d="
M121.974304,174.658325 
	C121.894295,174.875092 121.437401,174.922455 121.211182,174.962158 
	C120.690826,174.560242 120.396683,174.118637 120.285065,173.314819 
	C120.941147,173.077988 121.414688,173.203369 122.047211,173.666931 
	C122.206184,174.005096 122.054321,174.441559 121.974304,174.658325 
z"/>
<path fill="#F2F3F4" opacity="1.000000" stroke="none" 
	d="
M214.748840,146.179184 
	C214.855499,146.579330 214.708984,147.154007 214.321701,147.912201 
	C214.219177,147.515030 214.357437,146.934387 214.748840,146.179184 
z"/>
<path fill="#F8F4D6" opacity="1.000000" stroke="none" 
	d="
M218.988129,72.784828 
	C218.686996,72.931366 218.470688,72.753479 218.421173,72.230537 
	C218.716278,72.145988 218.877945,72.337631 218.988129,72.784828 
z"/>
<path fill="#E9EAEC" opacity="1.000000" stroke="none" 
	d="
M66.193298,174.996353 
	C66.262154,174.854996 66.557129,174.732361 66.862076,174.828796 
	C66.872055,175.047867 66.419434,175.015076 66.193298,174.996353 
z"/>
<path fill="#F8F4D6" opacity="1.000000" stroke="none" 
	d="
M199.832291,68.118256 
	C199.898972,68.343102 199.714752,68.630341 199.266632,68.960739 
	C199.195602,68.729492 199.388489,68.455078 199.832291,68.118256 
z"/>
<path fill="#E2F4FA" opacity="1.000000" stroke="none" 
	d="
M202.091644,182.811401 
	C201.995377,182.583588 202.165833,182.279800 202.585938,181.879242 
	C202.676514,182.100113 202.517426,182.417755 202.091644,182.811401 
z"/>
<path fill="#E3F7F1" opacity="1.000000" stroke="none" 
	d="
M244.162323,144.099121 
	C244.378082,144.016037 244.689651,144.206039 245.125397,144.646698 
	C244.919098,144.722290 244.588608,144.547241 244.162323,144.099121 
z"/>
<path fill="#F2F3F4" opacity="1.000000" stroke="none" 
	d="
M210.990906,115.000931 
	C210.635941,114.918961 210.379135,114.729858 210.067505,114.252823 
	C209.969391,114.023621 210.034286,113.965157 210.261429,114.058167 
	C210.793854,114.305634 211.015259,114.539482 211.152802,114.852730 
	C211.152802,114.852730 211.045792,114.952545 210.990906,115.000931 
z"/>
<path fill="#F2F3F4" opacity="1.000000" stroke="none" 
	d="
M208.912689,113.108833 
	C208.616196,112.962128 208.361649,112.762085 208.040405,112.283676 
	C207.931808,112.058655 207.985931,112.014435 208.209290,112.115379 
	C208.716660,112.405571 208.909424,112.663101 208.985764,113.018356 
	C208.960541,113.047806 208.912689,113.108833 208.912689,113.108833 
z"/>
<path fill="#F2F3F4" opacity="1.000000" stroke="none" 
	d="
M207.904694,112.080688 
	C207.596375,111.959610 207.355118,111.766579 207.023468,111.330910 
	C206.893127,111.138184 206.938934,111.085838 207.169739,111.161873 
	C207.676987,111.435448 207.872131,111.694290 207.985931,112.014435 
	C207.985931,112.014435 207.931808,112.058655 207.904694,112.080688 
z"/>
<path fill="#F8F4D6" opacity="1.000000" stroke="none" 
	d="
M244.138824,104.848732 
	C244.069489,104.627220 244.258636,104.341530 244.706650,103.988708 
	C244.776123,104.209229 244.586716,104.496887 244.138824,104.848732 
z"/>
<path fill="#F8F4D6" opacity="1.000000" stroke="none" 
	d="
M246.234924,102.925743 
	C246.036713,102.632042 246.215149,102.364922 246.783020,102.143799 
	C246.947983,102.426147 246.761017,102.680328 246.234924,102.925743 
z"/>
<path fill="#E6F2F5" opacity="1.000000" stroke="none" 
	d="
M217.570221,140.158676 
	C217.686600,140.324722 217.605438,140.639206 217.313995,141.094879 
	C217.056778,140.886826 217.146439,140.577164 217.570221,140.158676 
z"/>
<path fill="#E6F2F5" opacity="1.000000" stroke="none" 
	d="
M216.638031,142.167557 
	C216.767853,142.347824 216.683426,142.690811 216.375458,143.190201 
	C216.242554,143.007828 216.333176,142.669052 216.638031,142.167557 
z"/>
<path fill="#E3F7F1" opacity="1.000000" stroke="none" 
	d="
M242.154144,142.080063 
	C242.372070,142.016022 242.665009,142.223297 243.052490,142.687714 
	C242.841064,142.747025 242.535110,142.549210 242.154144,142.080063 
z"/>
<path fill="#E6F2F5" opacity="1.000000" stroke="none" 
	d="
M215.694321,144.176926 
	C215.835556,144.367172 215.745682,144.732742 215.425537,145.276886 
	C215.284576,145.087708 215.373886,144.719986 215.694321,144.176926 
z"/>
<path fill="#F8F4D6" opacity="1.000000" stroke="none" 
	d="
M223.780396,83.811234 
	C223.598038,84.045113 223.217484,84.026688 222.607605,83.838409 
	C222.779572,83.632019 223.180908,83.595474 223.780396,83.811234 
z"/>
<path fill="#010101" opacity="1.000000" stroke="none" 
	d="
M160.484222,154.119186 
	C160.720963,154.152710 160.869492,154.447617 160.799225,154.821533 
	C160.518967,154.727234 160.457504,154.553909 160.484222,154.119186 
z"/>
<path fill="#E2F4FA" opacity="1.000000" stroke="none" 
	d="
M209.631805,158.166962 
	C209.761765,158.345047 209.676804,158.688431 209.373383,159.196014 
	C209.242249,159.017563 209.329575,158.674911 209.631805,158.166962 
z"/>
<path fill="#E2F4FA" opacity="1.000000" stroke="none" 
	d="
M222.144318,158.843811 
	C222.049820,158.630203 222.207413,158.319077 222.614655,157.908936 
	C222.708328,158.122040 222.552353,158.434174 222.144318,158.843811 
z"/>
<path fill="#E2F4FA" opacity="1.000000" stroke="none" 
	d="
M221.232483,159.882782 
	C221.149765,159.687714 221.298889,159.384476 221.691803,158.987396 
	C221.778503,159.187225 221.621414,159.480911 221.232483,159.882782 
z"/>
<path fill="#F2F3F4" opacity="1.000000" stroke="none" 
	d="
M209.935486,114.051147 
	C209.622971,113.929802 209.382416,113.734161 209.046295,113.300293 
	C208.912689,113.108833 208.960541,113.047806 209.211456,113.116539 
	C209.751266,113.373177 209.941910,113.633141 210.034286,113.965157 
	C210.034286,113.965157 209.969391,114.023621 209.935486,114.051147 
z"/>
<path fill="#E9EAEC" opacity="1.000000" stroke="none" 
	d="
M132.127243,171.852081 
	C131.892349,171.439728 132.117874,171.228165 132.723724,171.167603 
	C132.967453,171.173004 133.036743,171.527298 133.072083,171.703217 
	C132.888611,171.888519 132.669830,171.897888 132.127243,171.852081 
z"/>
<path fill="#F2F3F4" opacity="1.000000" stroke="none" 
	d="
M232.283279,91.812370 
	C232.724121,93.940460 232.996521,96.128990 233.609024,98.217789 
	C234.607773,101.623878 235.828461,104.964882 236.911652,108.746010 
	C233.889389,103.360626 230.910950,97.562584 227.881165,91.403595 
	C228.702072,90.974266 229.574341,90.905891 230.870834,90.719780 
	C231.295074,90.602036 231.286499,90.667938 231.296509,90.981239 
	C231.612793,91.475723 231.919067,91.656914 232.225357,91.838097 
	C232.225357,91.838097 232.267578,91.828018 232.283279,91.812370 
z"/>
<path fill="#F8F8F8" opacity="1.000000" stroke="none" 
	d="
M168.815277,118.164444 
	C173.715378,114.164642 179.077271,115.584068 183.950638,117.112534 
	C185.814590,117.697128 187.469849,121.215912 187.893433,123.630333 
	C188.666916,128.039337 186.247345,131.073227 181.676117,131.457672 
	C177.608795,131.799698 173.489990,131.529465 168.807022,131.529465 
	C168.807022,127.151352 168.807022,122.899246 168.815277,118.164444 
z"/>
<path fill="#F8F4D6" opacity="1.000000" stroke="none" 
	d="
M232.169739,91.575546 
	C231.919067,91.656914 231.612793,91.475723 231.287048,91.013092 
	C231.549759,90.925423 231.831940,91.119209 232.169739,91.575546 
z"/>
<path fill="#81B0C7" opacity="1.000000" stroke="none" 
	d="
M210.261429,114.058167 
	C209.941910,113.633141 209.751266,113.373177 209.236679,113.087097 
	C208.909424,112.663101 208.716660,112.405571 208.209290,112.115379 
	C207.872131,111.694290 207.676987,111.435448 207.179688,111.128555 
	C207.771606,110.709328 208.841461,109.900398 209.357590,110.166283 
	C214.902390,113.022743 220.359802,116.048836 226.584534,119.432571 
	C224.891235,121.204872 223.632950,122.521881 222.192017,124.030052 
	C218.491379,120.899651 215.110550,118.039780 211.441254,115.016319 
	C211.015259,114.539482 210.793854,114.305634 210.261429,114.058167 
z"/>
<path fill="#939393" opacity="1.000000" stroke="none" 
	d="
M161.508453,174.131958 
	C161.541519,173.110336 161.784454,172.075241 162.027405,171.040131 
	C162.293594,171.623764 162.559784,172.207413 162.847137,173.225067 
	C162.484970,173.812210 162.101654,173.965347 161.508453,174.131958 
z"/>
<path fill="#FEFEFE" opacity="1.000000" stroke="none" 
	d="
M178.139938,173.331757 
	C178.446564,173.173309 178.672363,173.328979 178.905029,173.785980 
	C178.699295,173.836182 178.415039,173.689026 178.139938,173.331757 
z"/>
<path fill="#FEFEFE" opacity="1.000000" stroke="none" 
	d="
M178.895447,171.841278 
	C178.975906,172.000870 178.536942,171.989288 178.319641,171.964081 
	C178.339890,171.853149 178.577438,171.767426 178.895447,171.841278 
z"/>
<path fill="#383838" opacity="1.000000" stroke="none" 
	d="
M143.081772,173.800064 
	C142.530945,173.491943 141.975113,172.778763 141.419281,172.065598 
	C141.894211,171.754257 142.369141,171.442932 142.844070,171.131607 
	C142.921631,171.886078 142.999191,172.640549 143.081772,173.800064 
z"/>
<path fill="#FEFEFE" opacity="1.000000" stroke="none" 
	d="
M183.441742,174.427383 
	C183.498367,174.390991 183.385117,174.463776 183.441742,174.427383 
z"/>
<path fill="#E9EAEC" opacity="1.000000" stroke="none" 
	d="
M98.056427,171.529388 
	C98.662827,171.306885 99.255058,171.364685 100.016190,171.686844 
	C100.169571,172.412277 100.154045,172.873352 100.156403,173.680161 
	C99.668686,174.292252 99.163086,174.558624 98.657486,174.824997 
	C98.452415,173.819885 98.247337,172.814789 98.056427,171.529388 
z"/>
</svg>