<svg version="1.1" id="Layer_1" xmlns="http://www.w3.org/2000/svg" xmlns:xlink="http://www.w3.org/1999/xlink" x="0px" y="0px"
	 width="100%" viewBox="0 0 242 231" enable-background="new 0 0 242 231" xml:space="preserve">
<path fill="#4C4C4C" opacity="1.000000" stroke="none" 
	d="
M243.000000,89.000000 
	C243.000000,137.000000 243.000000,184.500000 243.000000,232.000000 
	C162.333328,232.000000 81.666664,232.000000 1.000000,232.000000 
	C1.000000,155.000000 1.000000,78.000000 1.000000,1.000000 
	C81.666664,1.000000 162.333328,1.000000 243.000000,1.000000 
	C243.000000,30.166666 243.000000,59.333332 243.000000,89.000000 
M192.929932,78.169083 
	C192.964661,66.022575 192.814651,53.871330 193.126266,41.731930 
	C193.248505,36.970238 191.399857,35.772728 186.987473,35.848553 
	C174.344757,36.065804 161.695892,35.926975 148.629105,35.800358 
	C148.629105,35.800358 148.206207,35.680370 147.936737,35.080551 
	C139.548721,26.549601 131.186005,17.993557 122.764656,9.495639 
	C116.031693,2.701465 115.943413,2.677279 109.380898,9.362785 
	C101.127869,17.770477 92.979172,26.280571 84.254120,34.915806 
	C83.902184,35.036514 83.550255,35.157223 82.245132,35.138718 
	C69.147461,35.093399 56.048401,35.140648 42.952995,34.944168 
	C39.214100,34.888065 37.972088,36.345100 38.097469,39.929466 
	C38.554825,53.004425 38.860260,66.084702 39.043842,79.709854 
	C38.926899,80.075424 38.809952,80.441002 38.086273,81.064697 
	C28.265749,90.727913 18.456398,100.402527 8.615949,110.045403 
	C6.462334,112.155769 7.401778,113.792915 9.145657,115.513550 
	C13.284313,119.597015 17.307800,123.798576 21.489864,127.836380 
	C27.206362,133.355682 33.026810,138.767334 38.889168,144.643524 
	C38.889168,144.643524 38.982040,145.062714 38.976105,145.992142 
	C38.673084,158.445526 38.361687,170.898697 38.072617,183.352402 
	C37.995239,186.686005 37.354435,190.151779 42.732685,190.055481 
	C56.202591,189.814331 69.678001,189.880798 83.807915,189.944504 
	C84.468628,190.044647 85.129341,190.144791 86.000443,190.884567 
	C96.502289,200.483475 107.004128,210.082382 117.686699,219.846466 
	C124.304741,213.241486 132.427399,205.210587 140.447510,197.078583 
	C142.515305,194.981949 144.260818,192.567474 146.841187,190.179764 
	C147.524643,190.041077 148.208099,189.902390 149.835770,189.882584 
	C162.603271,189.937302 175.371292,189.944107 188.137909,190.080688 
	C191.293091,190.114441 193.141174,189.381058 193.088974,185.696289 
	C192.901199,172.435562 192.894135,159.172302 192.981201,145.230637 
	C193.102982,144.542892 193.224762,143.855133 193.976105,142.968552 
	C203.848282,132.498062 213.720459,122.027588 223.873062,111.259682 
	C217.069031,104.463692 209.703644,97.013680 202.222107,89.682182 
	C199.393677,86.910484 196.297043,84.412483 193.221039,81.118935 
	C193.090790,80.451454 192.960556,79.783974 192.929932,78.169083 
z"/>
<path fill="#8A6C82" opacity="1.000000" stroke="none" 
	d="
M84.785454,34.746479 
	C92.979172,26.280571 101.127869,17.770477 109.380898,9.362785 
	C115.943413,2.677279 116.031693,2.701465 122.764656,9.495639 
	C131.186005,17.993557 139.548721,26.549601 147.611176,35.453537 
	C140.591980,37.501015 133.724915,38.694874 127.267921,41.025093 
	C123.208794,42.489967 119.764702,45.659046 115.751320,47.890705 
	C106.740921,39.830231 96.343094,35.917084 84.785454,34.746479 
z"/>
<path fill="#537381" opacity="1.000000" stroke="none" 
	d="
M38.802700,144.225128 
	C33.026810,138.767334 27.206362,133.355682 21.489864,127.836380 
	C17.307800,123.798576 13.284313,119.597015 9.145657,115.513550 
	C7.401778,113.792915 6.462334,112.155769 8.615949,110.045403 
	C18.456398,100.402527 28.265749,90.727913 38.468243,81.387848 
	C39.301388,93.488937 43.674622,103.567085 51.981483,112.219002 
	C52.000717,112.665428 51.994591,112.844292 51.715919,113.212357 
	C43.422691,122.114792 38.978252,132.294632 38.802700,144.225128 
z"/>
<path fill="#74657F" opacity="1.000000" stroke="none" 
	d="
M39.222946,79.162971 
	C38.860260,66.084702 38.554825,53.004425 38.097469,39.929466 
	C37.972088,36.345100 39.214100,34.888065 42.952995,34.944168 
	C56.048401,35.140648 69.147461,35.093399 82.604355,35.520359 
	C75.554321,44.975101 70.790779,55.069614 70.502708,67.079102 
	C65.859917,68.068161 61.649563,69.036987 57.032650,70.024887 
	C50.825043,73.083633 45.023994,76.123299 39.222946,79.162971 
z"/>
<path fill="#4C704F" opacity="1.000000" stroke="none" 
	d="
M83.151207,189.823868 
	C69.678001,189.880798 56.202591,189.814331 42.732685,190.055481 
	C37.354435,190.151779 37.995239,186.686005 38.072617,183.352402 
	C38.361687,170.898697 38.673084,158.445526 39.271023,145.685135 
	C45.501534,148.601105 51.437122,151.824081 57.701069,155.117310 
	C62.347492,156.117310 66.665558,157.047043 70.987061,158.414398 
	C71.302025,161.486649 71.563652,164.128326 71.934174,166.754669 
	C73.188599,175.646347 78.171211,182.737015 83.151207,189.823868 
z"/>
<path fill="#847237" opacity="1.000000" stroke="none" 
	d="
M192.818771,145.909988 
	C192.894135,159.172302 192.901199,172.435562 193.088974,185.696289 
	C193.141174,189.381058 191.293091,190.114441 188.137909,190.080688 
	C175.371292,189.944107 162.603271,189.937302 149.474594,189.511627 
	C156.445023,180.031082 160.965698,169.848267 161.443237,157.938629 
	C166.202438,156.574905 170.536911,155.232193 175.151459,154.110352 
	C177.389114,153.927002 179.572342,153.942139 181.259079,153.034531 
	C185.238083,150.893448 188.980606,148.312836 192.818771,145.909988 
z"/>
<path fill="#7D5C3F" opacity="1.000000" stroke="none" 
	d="
M193.322662,81.789719 
	C196.297043,84.412483 199.393677,86.910484 202.222107,89.682182 
	C209.703644,97.013680 217.069031,104.463692 223.873062,111.259682 
	C213.720459,122.027588 203.848282,132.498062 193.562500,142.635559 
	C192.116425,131.012619 187.899261,121.147591 180.180084,112.644928 
	C187.801392,103.496735 193.317368,93.811974 193.322662,81.789719 
z"/>
<path fill="#657542" opacity="1.000000" stroke="none" 
	d="
M146.154358,190.298996 
	C144.260818,192.567474 142.515305,194.981949 140.447510,197.078583 
	C132.427399,205.210587 124.304741,213.241486 117.686699,219.846466 
	C107.004128,210.082382 96.502289,200.483475 86.322968,190.486267 
	C88.919861,189.677094 91.231232,189.408813 93.461983,188.829895 
	C101.694862,186.693375 109.514404,183.760544 115.388687,176.851196 
	C116.109009,176.949005 116.521225,177.002121 117.114746,177.338226 
	C125.284950,185.558731 135.310776,188.859604 146.154358,190.298996 
z"/>
<path fill="#814444" opacity="1.000000" stroke="none" 
	d="
M149.049454,35.928135 
	C161.695892,35.926975 174.344757,36.065804 186.987473,35.848553 
	C191.399857,35.772728 193.248505,36.970238 193.126266,41.731930 
	C192.814651,53.871330 192.964661,66.022575 192.562592,78.537155 
	C186.113632,75.940269 180.031982,72.975311 173.981613,70.001099 
	C174.012878,69.991844 174.024887,70.055244 173.933746,69.969696 
	C173.630875,69.728683 173.407501,69.717690 172.825989,69.730515 
	C168.668503,68.754524 164.857544,67.899208 161.038910,66.603523 
	C160.915909,54.547779 156.335373,44.701900 149.049454,35.928135 
z"/>
<path fill="#98972F" opacity="1.000000" stroke="none" 
	d="
M146.497772,190.239380 
	C135.310776,188.859604 125.284950,185.558731 117.195389,176.987137 
	C117.988937,174.817398 118.932953,173.308289 119.767944,171.741089 
	C122.200905,167.174652 124.590286,162.584991 127.463676,157.956635 
	C138.959900,157.925751 149.989212,157.942673 161.018509,157.959610 
	C160.965698,169.848267 156.445023,180.031082 149.002472,189.452179 
	C148.208099,189.902390 147.524643,190.041077 146.497772,190.239380 
z"/>
<path fill="#AA84AD" opacity="1.000000" stroke="none" 
	d="
M70.935143,67.058876 
	C70.790779,55.069614 75.554321,44.975101 83.080948,35.589966 
	C83.550255,35.157223 83.902184,35.036514 84.519791,34.831142 
	C96.343094,35.917084 106.740921,39.830231 115.766388,48.116730 
	C116.074837,48.515625 116.104630,48.969128 115.818077,49.158836 
	C112.020813,55.229446 108.510094,61.110348 104.534431,67.056366 
	C93.024704,67.100616 81.979927,67.079750 70.935143,67.058876 
z"/>
<path fill="#649645" opacity="1.000000" stroke="none" 
	d="
M115.080574,176.806503 
	C109.514404,183.760544 101.694862,186.693375 93.461983,188.829895 
	C91.231232,189.408813 88.919861,189.677094 86.217773,190.166443 
	C85.129341,190.144791 84.468628,190.044647 83.479561,189.884186 
	C78.171211,182.737015 73.188599,175.646347 71.934174,166.754669 
	C71.563652,164.128326 71.302025,161.486649 71.456879,158.391449 
	C82.926109,157.940063 93.928947,157.949188 104.967392,158.336090 
	C108.362183,164.744720 111.721375,170.775620 115.080574,176.806503 
z"/>
<path fill="#B4647A" opacity="1.000000" stroke="none" 
	d="
M116.104630,48.969128 
	C116.104630,48.969128 116.074837,48.515625 116.059769,48.289597 
	C119.764702,45.659046 123.208794,42.489967 127.267921,41.025093 
	C133.724915,38.694874 140.591980,37.501015 147.745911,35.753448 
	C148.206207,35.680370 148.629105,35.800358 148.839279,35.864246 
	C156.335373,44.701900 160.915909,54.547779 160.567657,66.641983 
	C149.067596,67.078575 138.031128,67.036354 126.926643,66.635811 
	C123.273964,60.508034 119.689301,54.738579 116.104630,48.969128 
z"/>
<path fill="#A85438" opacity="1.000000" stroke="none" 
	d="
M173.950348,70.010353 
	C180.031982,72.975311 186.113632,75.940269 192.512787,79.010864 
	C192.960556,79.783974 193.090790,80.451454 193.271851,81.454330 
	C193.317368,93.811974 187.801392,103.496735 179.952667,112.655060 
	C179.550919,112.947716 179.096497,112.974632 179.061310,112.510788 
	C179.017395,102.899490 178.832001,93.747536 179.065125,84.606255 
	C179.208618,78.978653 177.895248,74.092552 173.950348,70.010353 
z"/>
<path fill="#AC802D" opacity="1.000000" stroke="none" 
	d="
M179.096497,112.974632 
	C179.096497,112.974632 179.550919,112.947716 179.778320,112.937584 
	C187.899261,121.147591 192.116425,131.012619 193.247726,142.734985 
	C193.224762,143.855133 193.102982,144.542892 192.899994,145.570312 
	C188.980606,148.312836 185.238083,150.893448 181.259079,153.034531 
	C179.572342,153.942139 177.389114,153.927002 175.366821,153.833221 
	C176.533737,149.655930 178.626266,146.023544 178.829559,142.288315 
	C179.360077,132.541122 179.063339,122.748894 179.096497,112.974632 
z"/>
<path fill="#7A89AC" opacity="1.000000" stroke="none" 
	d="
M39.133392,79.436417 
	C45.023994,76.123299 50.825043,73.083633 56.791260,70.305573 
	C53.376263,74.002617 52.088051,78.257881 52.110943,83.142418 
	C52.155941,92.744972 52.018242,102.348381 51.956127,111.951431 
	C43.674622,103.567085 39.301388,93.488937 38.771606,81.258789 
	C38.809952,80.441002 38.926899,80.075424 39.133392,79.436417 
z"/>
<path fill="#529484" opacity="1.000000" stroke="none" 
	d="
M57.372719,155.047043 
	C51.437122,151.824081 45.501534,148.601105 39.273991,145.220428 
	C38.982040,145.062714 38.889168,144.643524 38.845932,144.434326 
	C38.978252,132.294632 43.422691,122.114792 51.745461,113.677773 
	C52.063866,122.865265 52.226429,131.779556 52.043167,140.686737 
	C51.928234,146.272781 53.296017,151.112366 57.372719,155.047043 
z"/>
<path fill="#4E4E4E" opacity="1.000000" stroke="none" 
	d="
M57.701073,155.117310 
	C53.296017,151.112366 51.928234,146.272781 52.043167,140.686737 
	C52.226429,131.779556 52.063866,122.865265 52.018005,113.488571 
	C51.994591,112.844292 52.000717,112.665428 51.981483,112.219002 
	C52.018242,102.348381 52.155941,92.744972 52.110943,83.142418 
	C52.088051,78.257881 53.376263,74.002617 57.197815,70.286499 
	C61.649563,69.036987 65.859917,68.068161 70.502708,67.079102 
	C81.979927,67.079750 93.024704,67.100616 104.998581,67.128540 
	C112.950005,67.088432 119.972336,67.041283 126.994659,66.994133 
	C138.031128,67.036354 149.067596,67.078575 160.575317,67.082336 
	C164.857544,67.899208 168.668503,68.754524 173.036362,69.790535 
	C173.593246,69.971222 174.024887,70.055244 174.024887,70.055244 
	C174.024887,70.055244 174.012878,69.991844 173.981613,70.001099 
	C177.895248,74.092552 179.208618,78.978653 179.065125,84.606255 
	C178.832001,93.747536 179.017395,102.899490 179.061310,112.510788 
	C179.063339,122.748894 179.360077,132.541122 178.829559,142.288315 
	C178.626266,146.023544 176.533737,149.655930 175.086731,153.612335 
	C170.536911,155.232193 166.202438,156.574905 161.443237,157.938629 
	C149.989212,157.942673 138.959900,157.925751 126.998169,157.900024 
	C119.021088,157.913605 111.976440,157.935959 104.931793,157.958328 
	C93.928947,157.949188 82.926109,157.940063 71.453445,157.953857 
	C66.665558,157.047043 62.347492,156.117310 57.701073,155.117310 
M67.264748,100.104568 
	C67.579880,98.455780 67.895012,96.806992 68.202431,95.198547 
	C66.742233,95.198547 65.296097,95.198547 64.252975,95.198547 
	C64.252975,100.172966 64.252975,104.950287 64.252975,109.866562 
	C65.398964,109.866562 66.849960,109.866562 67.922859,109.866562 
	C67.675812,107.693390 67.441498,105.632164 67.842010,103.292046 
	C69.852432,105.239998 71.862862,107.187958 74.643181,109.881897 
	C74.614723,109.881897 76.079124,109.881897 77.543526,109.881897 
	C77.793411,109.495888 78.043304,109.109871 78.293190,108.723862 
	C74.553200,106.085701 70.813202,103.447540 67.264748,100.104568 
M102.074867,104.260033 
	C104.009514,105.927361 105.944153,107.594681 107.859436,109.245323 
	C107.859436,104.818642 107.859436,100.451813 107.859436,94.435760 
	C106.440689,96.750336 105.923813,97.963043 105.081390,98.875023 
	C104.012138,100.032570 102.678688,100.946060 101.162437,101.189049 
	C101.162437,99.258820 101.162437,97.328598 101.162437,95.100845 
	C100.375145,95.164330 99.196434,95.259369 98.142899,95.344315 
	C98.142899,100.389374 98.142899,104.994064 98.142899,109.791519 
	C99.208603,109.791519 100.765350,109.791519 101.456543,109.791519 
	C101.456543,107.715370 101.456543,105.875786 102.074867,104.260033 
M165.500229,103.916069 
	C164.304642,100.897392 163.109070,97.878708 161.913498,94.860023 
	C161.472122,94.837097 161.030746,94.814163 160.589371,94.791237 
	C159.572311,98.018806 158.555252,101.246376 157.538193,104.473946 
	C157.143112,104.151993 156.748032,103.830048 156.352951,103.508102 
	C157.444260,102.737808 158.535583,101.967522 160.002075,100.932419 
	C161.711807,104.107880 163.119324,106.722038 164.791748,109.828201 
	C165.153870,109.828201 166.586853,109.828201 168.119141,109.828201 
	C167.293243,107.937378 166.568237,106.277557 165.500229,103.916069 
M135.001297,97.758163 
	C139.296051,101.718834 143.590805,105.679497 147.607880,109.384087 
	C147.607880,105.047966 147.607880,100.551918 147.607880,96.055870 
	C147.258194,96.066513 146.908524,96.077156 146.558838,96.087799 
	C146.558838,98.946571 146.558838,101.805344 146.558838,105.000656 
	C136.141312,95.191460 136.141312,95.191460 133.723038,95.508759 
	C134.111725,96.020126 134.500397,96.531502 135.001297,97.758163 
M92.053612,105.399483 
	C90.630409,101.884193 89.207207,98.368904 87.679558,94.595642 
	C80.296822,101.352249 91.950340,104.344490 89.589951,109.848167 
	C91.069504,109.848167 92.510551,109.848167 94.170746,109.848167 
	C93.467369,108.451584 92.885132,107.295525 92.053612,105.399483 
M124.767014,108.743988 
	C118.776886,108.402702 118.262207,107.744942 118.184753,101.071175 
	C118.155853,98.581779 119.261414,95.260696 115.168785,95.076988 
	C115.406067,97.788498 115.757019,100.265648 115.814575,102.749603 
	C115.974815,109.664680 117.794884,111.068886 124.767014,108.743988 
z"/>
<path fill="#97B232" opacity="1.000000" stroke="none" 
	d="
M104.967392,158.336090 
	C111.976440,157.935959 119.021088,157.913605 126.531242,157.947845 
	C124.590286,162.584991 122.200905,167.174652 119.767944,171.741089 
	C118.932953,173.308289 117.988937,174.817398 117.014084,176.704147 
	C116.521225,177.002121 116.109009,176.949005 115.388687,176.851196 
	C111.721375,170.775620 108.362183,164.744720 104.967392,158.336090 
z"/>
<path fill="#A85438" opacity="1.000000" stroke="none" 
	d="
M173.933746,69.969696 
	C174.024887,70.055244 173.593246,69.971222 173.382874,69.911201 
	C173.407501,69.717690 173.630875,69.728683 173.933746,69.969696 
z"/>
<path fill="#C97CA7" opacity="1.000000" stroke="none" 
	d="
M126.926643,66.635811 
	C119.972336,67.041283 112.950005,67.088432 105.463531,67.063416 
	C108.510094,61.110348 112.020813,55.229446 115.818077,49.158836 
	C119.689301,54.738579 123.273964,60.508034 126.926643,66.635811 
z"/>
<path fill="#E7E7E7" opacity="1.000000" stroke="none" 
	d="
M165.671738,104.266907 
	C166.568237,106.277557 167.293243,107.937378 168.119141,109.828201 
	C166.586853,109.828201 165.153870,109.828201 164.791748,109.828201 
	C163.119324,106.722038 161.711807,104.107880 160.002075,100.932419 
	C158.535583,101.967522 157.444260,102.737808 156.352951,103.508102 
	C156.748032,103.830048 157.143112,104.151993 157.538193,104.473946 
	C158.555252,101.246376 159.572311,98.018806 160.589371,94.791237 
	C161.030746,94.814163 161.472122,94.837097 161.913498,94.860023 
	C163.109070,97.878708 164.304642,100.897392 165.671738,104.266907 
z"/>
<path fill="#F1F1F1" opacity="1.000000" stroke="none" 
	d="
M134.945190,97.400513 
	C134.500397,96.531502 134.111725,96.020126 133.722656,95.509048 
	C136.141312,95.191460 136.141312,95.191460 146.558838,105.000656 
	C146.558838,101.805344 146.558838,98.946571 146.558838,96.087799 
	C146.908524,96.077156 147.258194,96.066513 147.607880,96.055870 
	C147.607880,100.551918 147.607880,105.047966 147.607880,109.384087 
	C143.590805,105.679497 139.296051,101.718834 134.945190,97.400513 
z"/>
<path fill="#EDEDED" opacity="1.000000" stroke="none" 
	d="
M92.178253,105.769470 
	C92.885132,107.295525 93.467369,108.451584 94.170746,109.848167 
	C92.510551,109.848167 91.069504,109.848167 89.589951,109.848167 
	C91.950340,104.344490 80.296822,101.352249 87.679558,94.595642 
	C89.207207,98.368904 90.630409,101.884193 92.178253,105.769470 
z"/>
<path fill="#F2F2F2" opacity="1.000000" stroke="none" 
	d="
M124.767784,109.099319 
	C117.794884,111.068886 115.974815,109.664680 115.814575,102.749603 
	C115.757019,100.265648 115.406067,97.788498 115.168785,95.076988 
	C119.261414,95.260696 118.155853,98.581779 118.184753,101.071175 
	C118.262207,107.744942 118.776886,108.402702 124.767784,109.099319 
z"/>
<path fill="#686868" opacity="1.000000" stroke="none" 
	d="
M101.459167,101.964790 
	C102.678688,100.946060 104.012138,100.032570 105.081390,98.875023 
	C105.923813,97.963043 106.440689,96.750336 107.859436,94.435760 
	C107.859436,100.451813 107.859436,104.818642 107.859436,109.245323 
	C105.944153,107.594681 104.009514,105.927361 101.799072,103.803452 
	C101.501900,102.886177 101.480530,102.425484 101.459167,101.964790 
z"/>
<path fill="#F8F8F8" opacity="1.000000" stroke="none" 
	d="
M101.310799,101.576920 
	C101.480530,102.425484 101.501900,102.886177 101.489906,103.691528 
	C101.456543,105.875786 101.456543,107.715370 101.456543,109.791519 
	C100.765350,109.791519 99.208603,109.791519 98.142899,109.791519 
	C98.142899,104.994064 98.142899,100.389374 98.142899,95.344315 
	C99.196434,95.259369 100.375145,95.164330 101.162437,95.100845 
	C101.162437,97.328598 101.162437,99.258820 101.310799,101.576920 
z"/>
<path fill="#F7F7F7" opacity="1.000000" stroke="none" 
	d="
M67.207176,103.570938 
	C67.441498,105.632164 67.675812,107.693390 67.922859,109.866562 
	C66.849960,109.866562 65.398964,109.866562 64.252975,109.866562 
	C64.252975,104.950287 64.252975,100.172966 64.252975,95.198547 
	C65.296097,95.198547 66.742233,95.198547 68.202431,95.198547 
	C67.895012,96.806992 67.579880,98.455780 67.167816,100.917900 
	C67.116310,102.344467 67.161743,102.957703 67.207176,103.570938 
z"/>
<path fill="#F1F1F1" opacity="1.000000" stroke="none" 
	d="
M67.524597,103.431488 
	C67.161743,102.957703 67.116310,102.344467 67.072037,101.270309 
	C70.813202,103.447540 74.553200,106.085701 78.293190,108.723862 
	C78.043304,109.109871 77.793411,109.495888 77.543526,109.881897 
	C76.079124,109.881897 74.614723,109.881897 74.643181,109.881897 
	C71.862862,107.187958 69.852432,105.239998 67.524597,103.431488 
z"/>
</svg>